/* XPM */
static char *result[] = {
/* columns rows colors chars-per-pixel */
"40 40 21 1 ",
"  c gray1",
". c #060637",
"X c #070737",
"o c #060936",
"O c #070B36",
"+ c #070A37",
"@ c #070B37",
"# c #070C36",
"$ c #070C37",
"% c #070D37",
"& c #080836",
"* c #080A37",
"= c #080B37",
"- c #080C37",
"; c #070B38",
": c #070C38",
"> c #080B38",
", c #080C38",
"< c #080D38",
"1 c #616CB8",
"2 c None",
/* pixels */
">>>>,>,<<<<<<<<<<<<<<<<<<<<<<<<<<<<,><><",
",<<<<<<>>,>>>,>>,>>,>,,>>,>>>>>>>>>-><><",
":$$$$$$$::<<<<<<<<<<<<<<<<<<<<<<<<<-><><",
">--,@;;;$$$$$$$$$$$$$$:::$$$$$$$$$<#><><",
"><<@21111111,;@@;;@@;@@;@@@,@;@@;;,$><><",
"><<@,11111111111111111111111111111<@><><",
"><<>,11111111111111111111111111111<-><><",
"><<@111111111111111111111111111111<-><><",
"<<<@111111111111111111111111111111<#><><",
"<<<@111111111111111111111111111111%-><,<",
"<<>$111111111111111111111111111111<-><><",
"<<>$111111111111111111111111111111<,><><",
"<<>@111111111111111111111111111111<-><><",
"<<>;111111111111111111111111111111<=><><",
"<<@,111111111111111111111111111111<-><><",
"<<@,111111111111111111111111111111<-><><",
"<<@,111111111111111111111111111111<,><><",
"<<@,11111111111111111111111    111,-><><",
"<<@1111111111111111111111111   111<-><><",
"><@1111111111111111111111111   111<-><><",
"><@1111111111111111111111111   111<-><><",
"><@1111111111111111111111111111111<-><><",
"><$1111111111111111111111111111111<-><><",
"><$1211111111111111111111111111111<-><><",
"><$,211111111111111111111111111111<-><><",
"><<;211111111111111111111111111111<-><><",
"><<;211111111111111111111111111111<-><><",
"><<;211111111111111111111111111111<-><><",
"><<;211111111111111111111111111111<-><><",
"><<@211111111111111111111111111111<-><><",
"><<@211111111111111111111111111111<-><><",
"><<@211111111111111111111111111111<-><><",
"---+&2111111111112&1&1111111111111=-><,<",
"--*+2111111111112..-;21X1111111111<-><<<",
"--##@-=O=++++++++@@o@;#OO#######--,@=-<<",
"<:%-,,,,,,,,,,,,%$$<<:$-,<<<<<<<<1<-<<<<",
"<<<<<<<<<<<<<<<<<<<<<<<<<<<<<<<<<<<----<",
"<<<<<<<<<<<<<<<<<<<<<<<<<<<<<<<<<<<<<<<<",
"<<<<<<<<<<<<<<<<>><<<<<<<<<<<<<<<<<<<<<<",
">>>,,,,,,,,,,,,,,>>>>>>>>>>>>>>><<<<<<<<"
};
