/* XPM */
static char *result[] = {
/* columns rows colors chars-per-pixel */
"40 40 5 1 ",
"  c #4F2D00",
". c #754400",
"X c #FF9800",
"o c #F2B809",
"O c #FFD760",
/* pixels */
"                                        ",
" OOOOOOOOOOOOOOOOOOOOOOOOOOOOOOOOOOOOOO ",
" OOOOOOOOOOOOOOOOOOOOOOOOOOOOOOOOOOOOOO ",
" OOOOOOOOOOOOOOOOOOOOOOOOOOOOOOOOOOOOOO ",
" OOOOXXXOOOOOOOOXX..XOOOOOOOOOOOOOOOOOO ",
" OOOO..XOOOOOOOOOO...XXXOOOOOOOOOOOOOOO ",
" OOOOX..XOOOOOOOOXX...XOOOOOOOOOOOOOOOO ",
" OOOOOX.XOOOOOOOOOXX.XOOOOOOOOOXOOOOOOO ",
" OOOOOOOOOOOOOOOOOOXXXOOOOOOOOXXXOOOOOO ",
" OOOOOOOOOOOOOOOOOOOOOOOOOOOOX...XXXOOO ",
" OOOOOOOOOOOOOOOOOOOOOOOOOOOOX.....XOOO ",
" OOOOOOOOOOOOOOOOOOOOOOOOOOOOOOXX.XOOOO ",
" OOOOOOOOOOOOOOOOOOOOOOOOOOOOOOOOXXOOOO ",
" OOOOOOOOOOOOOOXXXXOOOOOOOOOOOOOOOOOOOO ",
" OOOOOOOOOOOOOOO..XXOOOOOOOOOOOOOOOOOOO ",
" OOOOOOXXOOOOOOXX..XXOOOOOOOOOOOOOOOOOO ",
" OOOOOOOX.XOOOOOXX..XOOOOOOOOOOXOOOOOOO ",
" OOOOOXX..XOOOOOOX.XXOOOOOOOOOXXXOOOOOO ",
" OOOOXX..XOOOOOOOOOOOOOOOOOOXX..XOOOOOO ",
" OOOOX.XXOOOOOOOOOOOOOOOOOOXX...XOOOOOO ",
" OOOOXXOOOOOOOOOOOOOOOOOOOOX...XOOOOOOO ",
" OOOOOOOOOOOOOOOOOOOOOOOOOXX..XOOOOOOOO ",
" OOOOOOOOOOOOOOOXXXXOOOOOOOXXXOOOOOOOOO ",
" OOOOOOOOOOOOOOOXX.XXOOOOOOOOOOOOOOOOOO ",
" OOOOOOOOOOOOOOOOXX..XXOOOOOOOOOOOOOOOO ",
" OOOOOOOOOOOOOOOOOXX..XOOOOOOOOOOOOOOOO ",
" OOOOOOOOOOOOOOOOOOOXXXOOOOOOOOOOOOOOOO ",
" OOOOOOOXXXXXXOOOOOOOOOOOXXXOOOOOOOOOOO ",
" OOOOOOOX..XXXOOOOOOOOOOOOXXXXXOOOOOOOO ",
" OOOOOOOOX...XOOOOOOOOOOOXX..XXXOOOOOOO ",
" OOOOOOOOXX..XOOOOOOOOOOOXX...XXOOOOOOO ",
" OOOOOOOOOXXXXOOOOOOOOOOOOXX..XOOOOOOOO ",
" OXXOOOOOOOOXXOOOOOOOOOOOOXXX.XOOOOOOOO ",
" XXXXXOOOOOOOOOOOOOXOOOOOOOOXOXXOOOOOOO ",
" X...XXOOOOOOOOOOXXXXOOOOOOOOOOOOOOOOOO ",
" X...XXOOOOOOOOOXXX.XXOOOOOOOOOOOOOOOOO ",
" XXXXOOOOOOOOOOOXX.. XXOOOOOOOOOOOOOOOO ",
" ooXXOOOOOOOOOOOOX.. XOOOOOOOOOOOOOOOOO ",
" ooXOOOOOOOOOOOOOXXXOOOOOOOOOOOOOOOOOOO ",
"                                        "
};
