/* XPM */
static char *result[] = {
/* columns rows colors chars-per-pixel */
"40 40 4 1 ",
"  c #1A0005",
". c #240007",
"X c #33000A",
"o c #5E0013",
/* pixels */
"...... ooooooooooooooooooooooooo ooooooo",
"ooooo. ooooooooooooooooooooooooo ooooooo",
"oooooo ooooooooooooooooooooooooo ooooooo",
"oooooo ooooooooooooooooooooooooo ooooooo",
"oooooo ooooooooooooooooooooooooo ooooooo",
"oooooo ooooooooooooooooooooooooo ooooooo",
"oooooo ooooooooooooooooooooooooo ooooooo",
"oooooo ooooooooooooooooooooooooo ooooooo",
"                                        ",
"oooooooooooooooooo ..ooooooooooooooooooo",
"oooooooooooooooooo .oooooooooooooooooooo",
"oooooooooooooooooo ooooooooooooooooooooo",
"oooooooooooooooooo ooooooooooooooooooooo",
"oooooooooooooooo.. ooooooooooooooooooooo",
"oooooooooooooooo.. ooooooooooooooooooooo",
"                                        ",
"oooooooo.. ooooooooooooooooooo ooooooooo",
"oooooooo.. ooooooooooooooooooo ooooooooo",
"oooooooooo ooooooooooooooooooo ooooooooo",
"oooooooooo ooooooooooooooooooo ooooooooo",
"oooooooooo ooooooooooooooooooo ooooooooo",
"oooooooooo ooooooooooooooooooo ooooooo..",
"oooooooooo ooooooooooooooooooo ooooooo..",
"                                        ",
"ooooo oooooooooooooooo..XXXX ooooooooooo",
"ooooo oooooooooooooooo....XX ooooooooooo",
"ooooo oooooooooooooooooooooX ooooooooooo",
"ooooo oooooooooooooooooooooo ooooooooooo",
"ooooo oooooooooooooooooooooo ooooooooooo",
"ooooo oooooooooooooooooooooo ooooooooooo",
"ooooo oooooooooooooooooooooo ooooooooooo",
"ooooo oooooooooooooooooooooo ooooooooooo",
"ooooo oooooooooooooooooooooo ooooooooooo",
"                                        ",
"oooooooooooo ooooooooooooooooooooo ooooo",
"oooooooooooo ooooooooooooooooooooo ooooo",
"oooooooooooo ooooooooooooooooooooo ooooo",
"oooooooooooo ooooooooooooooooooooo ooooo",
"oooooooo.... ooooooooooooooooooooo oooo.",
"oooooooo.... ooooooooooooooooooooo ooo.."
};
