/* XPM */
static char *result[] = {
/* columns rows colors chars-per-pixel */
"51 51 26 1 ",
"  c #68CE82",
". c #6ACF84",
"X c #6ED085",
"o c #70D087",
"O c #72D188",
"+ c #73D288",
"@ c #79D48B",
"# c #7ED68E",
"$ c #83D791",
"% c #88D994",
"& c #8EDB97",
"* c #8FDC98",
"= c #93DD9A",
"- c #97DF9D",
"; c #99E09E",
": c #9CE09F",
"> c #A0E2A1",
", c #A1E3A2",
"< c #A4E4A4",
"1 c #A9E5A7",
"2 c #A8E6A6",
"3 c #AFE8AA",
"4 c #B4EAAD",
"5 c #B5EAAD",
"6 c #B7EAAE",
"7 c None",
/* pixels */
"777777777777777777777777777777777777777777777777777",
"777777777777777777777777777777777777777777777777777",
"777777777777777777777775557777777777777777777777777",
"777777777777777777772666666427777777777777777777777",
"777777777777777777746666666662777777777777777777777",
"777777777777777777466666666666777777777777777777777",
"777777777777777775666666666333357777777777777777777",
"777777777777777776666666633333331477777777777777777",
"777777777777766666666663333333131112777777777777777",
"77777777777566666666633633333111111<1;2777777777777",
"777777777756666663333333331111111<<<<<<,77777777777",
"7777777777666636336333331111111<<<<><>>>,7777777777",
"77777777756663633333311111111<<<<<>>>>>::;777777777",
"777777777363333333311311111<<<><>>>>>>::::777777777",
"777777777363333331111111<<<<<<>>>>>:::::--277777777",
"7777777773333331311111<<<<<<>>>>>:::::----;77777777",
"77777777743331111111<<<<<>>>>>>:::::-----=*77777777",
"77777743313111111<1<<<<<>>>>>::::-:---====;77777777",
"7777231313111111<<<<<><>>>:::::------=====*77777777",
"77723331111111<<<<<>>>>>::::::----=-====&&&&*777777",
"77731111111<<<<<<>>>>::::::------======&&&&&%%77777",
"772311111<<<<<>>>>>::::::-----=====&=&&&&&%%%&%7777",
"77;111<<<<<><>>>>::::::-----======&&&&&%&%%%%%%;777",
"77,11<<<<<>>>>>::::::-----======&&&&&&%%%%%%%$$$777",
"77<1<<<><>>>::::::-----======&&&&&&&%%%%%%$$$$$$777",
"77<<<><>>>::::::----=-=====&&&&&&%&%%%%%%$$$$$##777",
"77<><>>>:::::------======&&&&&&%%%%%%%$$$$$$####777",
"77,>>>:::::-----=======&&&&&&%&%%%%%$$$$$$######777",
"77;>::::::-----======&&&&&&%%%%%%%$$$$$$######@O777",
"775:::::----======&&&&&&&%%%%%%%$$$$$#$####@@@@@777",
"77,::-----======&&&&&&%%%%%%%$$$$$$######@@#@@@@o77",
"77:------=====&&&&&&&%&%%%%%$$$$$$#####@@@@@+@@+O77",
"77----=====&&&&&&&%%%%%%%$$$$$$$#####@@@@@@+@++++77",
"77;-======&&&&&%&%%%%%$$$$$$$######@@@@@@@++++++X77",
"772====&&&&&&&%%%%%%$$$$$$$#####@@@@@@+++++++X+XX77",
"777===&&&&%&%%%%%%$$$$$$#######@@@@@@+@+++++XXXXX77",
"777;&&&&&&%%%%%%$$$$$$######@@@@@@+++++++XXXXXX  77",
"7777&&&%%%%%%%$$$$$$######@@@@@@@++++++X+XXXX X o77",
"77777*%%%%%$$$$$$$#####@#@@@@@+++++++XXXXXX X   777",
"777777*%%$$$$$$$####@#@@@@@@@+++++++XXXXXX     7777",
"7777772$$$$$$#######@@@@@+@++++++XXXXXX      .77777",
"7777777$$$$$####@#@@@@@+@++++++XXXXXX      o7777777",
"7777777o$#####@@@@@@@+@++++X+XXXXX        777777777",
"77777777O####@@@@@+@+++++X+XXXX X       O7777777777",
"777777777.#@@@@@@+@+++++XXXXXX X   ...o777777777777",
"77777777777o@@++++++oOXXXXXX X     7777777777777777",
"77777777777777o.OOo777XXXX        77777777777777777",
"77777777777777777777777O        .777777777777777777",
"7777777777777777777777777o.O.o777777777777777777777",
"777777777777777777777777777777777777777777777777777",
"777777777777777777777777777777777777777777777777777"
};
