/* XPM */
static char *result[] = {
/* columns rows colors chars-per-pixel */
"40 40 162 2 ",
"   c #080A47",
".  c #0B0B47",
"X  c #0C0B47",
"o  c #0F0B46",
"O  c #0C0C47",
"+  c #0D0C47",
"@  c #0F0C47",
"#  c #0F0D47",
"$  c #090A48",
"%  c #080B48",
"&  c #090B48",
"*  c #080A49",
"=  c #090A49",
"-  c #080B49",
";  c #090B49",
":  c #0A0A48",
">  c #0A0B48",
",  c #0B0B48",
"<  c #0A0A49",
"1  c #0A0B49",
"2  c #0B0B49",
"3  c #090B4A",
"4  c #090B4B",
"5  c #0A0B4A",
"6  c #0C0A48",
"7  c #0C0B48",
"8  c #0D0B48",
"9  c #0C0B49",
"0  c #0D0B49",
"q  c #0E0B48",
"w  c #0E0B49",
"e  c #090C48",
"r  c #080C49",
"t  c #090C49",
"y  c #0A0C48",
"u  c #0B0C48",
"i  c #0A0C49",
"p  c #0B0C49",
"a  c #0B0D49",
"s  c #090C4A",
"d  c #0A0C4A",
"f  c #0B0D4A",
"g  c #0C0C48",
"h  c #0D0C48",
"j  c #0D0D48",
"k  c #0C0C49",
"l  c #0D0C49",
"z  c #0C0D49",
"x  c #0D0D49",
"c  c #0E0C48",
"v  c #0F0C48",
"b  c #0E0D48",
"n  c #0F0D48",
"m  c #0E0C49",
"M  c #0E0D49",
"N  c #0F0D49",
"B  c #0C0C4A",
"V  c #0E0C4A",
"C  c #100C47",
"Z  c #100D47",
"A  c #110D47",
"S  c #130D47",
"D  c #130E47",
"F  c #170D45",
"G  c #140D47",
"H  c #150D47",
"J  c #140E47",
"K  c #150E47",
"L  c #150F47",
"P  c #160E46",
"I  c #170E46",
"U  c #160E47",
"Y  c #170E47",
"T  c #160F47",
"R  c #170F47",
"E  c #190E45",
"W  c #1B0E45",
"Q  c #1B0F45",
"!  c #190E46",
"~  c #180F46",
"^  c #190F46",
"/  c #180F47",
"(  c #1B0F46",
")  c #1C0F45",
"_  c #1E0F45",
"`  c #100D48",
"'  c #110D48",
"]  c #100D49",
"[  c #110D49",
"{  c #120D48",
"}  c #120D49",
"|  c #100E48",
" . c #110E48",
".. c #100E49",
"X. c #110E49",
"o. c #120E48",
"O. c #130E48",
"+. c #120E49",
"@. c #130E49",
"#. c #140E48",
"$. c #150E48",
"%. c #140F48",
"&. c #150F48",
"*. c #160E48",
"=. c #160F48",
"-. c #180F48",
";. c #190F48",
":. c #171047",
">. c #1B1045",
",. c #181047",
"<. c #191047",
"1. c #1A1046",
"2. c #1B1046",
"3. c #1A1047",
"4. c #1B1047",
"5. c #1B1147",
"6. c #1C1045",
"7. c #1E1044",
"8. c #1E1045",
"9. c #1C1046",
"0. c #1D1046",
"q. c #1D1146",
"w. c #1C1147",
"e. c #1E1046",
"r. c #1F1146",
"t. c #1E1047",
"y. c #1E1147",
"u. c #1F1247",
"i. c #1A1048",
"p. c #211044",
"a. c #211145",
"s. c #221145",
"d. c #231245",
"f. c #201147",
"g. c #201246",
"h. c #211246",
"j. c #211247",
"k. c #231246",
"l. c #251244",
"z. c #251245",
"x. c #241345",
"c. c #251345",
"v. c #261244",
"b. c #271345",
"n. c #251246",
"m. c #241346",
"M. c #271346",
"N. c #291343",
"B. c #2A1443",
"V. c #2E1443",
"C. c #2E1543",
"Z. c #291344",
"A. c #291345",
"S. c #291445",
"D. c #2A1444",
"F. c #2C1545",
"G. c #2E1545",
"H. c #341742",
"J. c #341643",
"K. c #341743",
"L. c #3A1942",
"P. c #421B42",
/* pixels */
"d d d d d d d d d d d d d d d d d d d d d d d d d d d d d d d d d d d d d d d d ",
"d P.P.P.P.P.m.L.P.P.P.m.g.P.K.P.d P.P.L.P.F.P.P.P.S.L.P.P.P.P.P.P.P.P.P.P.P.P.d ",
"d P.P.P.L.L.P.P.P.P.P.@.G.P.L.w.g.P.L.P.L.P.P.P.P.w.L.P.P.K.P.P.P.P.F.P.P.P.P.d ",
"d P.P.P.L.K.P.L.G.P.P.d P.P.P.@.S.P.P.m.C.P.P.P.m.g.P.K.P.;.P.P.P.P.F.P.P.P.P.d ",
"d P.P.P.P.P.P.K.;.P.g.;.S.P.P.] ;.H.L.P.G.P.P.P.@.G.P.L.w.g.P.P.P.P.P.P.P.P.P.d ",
"d P.P.P.P.P.P.L.] P.;.P.;.L.K.w.g.z.C.P.g.G.P.P.d P.P.P.@.S.P.P.P.K.P.P.P.P.P.d ",
"d P.P.P.P.F.F.P.m.&.g.P.G.m.w.K.P.w.K.S.n.;.P.g.;.S.P.K.] ;.L.P.P.G.P.P.P.P.P.d ",
"d P.P.P.P.P.P.P.L.B 4.P.P.m.M P.P.c.g.;.L.] P.@.P.;.C.D.w.g.S.L.F.m.P.P.P.P.P.d ",
"d P.P.P.P.P.F.P.K.3 D P.P.u.5 F.K.K.R N L.m.` g.D.G.-.<.K.P.w.K.S.G.P.P.P.P.P.d ",
"d P.P.L.P.P.e.P.S.n x K.P.g.S.` S.L.S.q.( H.B R s.P.+.M P.e.c.g.;.P.P.F.P.P.P.d ",
"d P.L.J.L.P.P.P.g.z l.X.K.:.L.g.R N.i.P.#.C.5 n D.i.,.5 K.F.;.g.@.P.P.F.P.P.P.d ",
"d P.J.m.C.F.P.L.%.2 0.' &.m P.g.n h.g L.[ ^ w.d l.N / 2.<.w.g.S.{ L.P.P.P.P.P.d ",
"d L.L.=.J.P.P.P.1 b P.Q d 2 P.@.t.5 C R S Z M , X.< ` 9 g.] z.m.*.L.K.P.P.P.P.d ",
"d C.D.P.L.G.P.F.1 5.K.F d p J.1 { d d.l X A ; O.l 1 5 B L.p [ x.F.M.A.P.P.P.P.d ",
"d J.D.P.l.] P.{ 5 S.2.Q ; 1 D C 7 o.V.p & ) d G.q d ; n K.l 1 I L.P.m.P.P.P.P.d ",
"d P.P.L._ 3 P.B V m k p.t k t 7.m O.8.3 ; X 1 g 1 @.3 p ' 2 l w k.S.G.F.P.P.P.d ",
"d P.F.k.0.4 &.k F.5 1 n > y e $.T k M - j 1 8 ; ; v.; d ; c q.m g.;.P.P.P.P.P.d ",
"d P.2.2.=.` 3 j P.d 5 d o & t ' 5 l d - d 2 l ; > + #.b & j ~ #.g.] P.P.P.P.F.d ",
"d P.C.D.L.l.3 j P.d x 3 E t i y s f.1 d ; j k s ; & K.1.5 i k n.S.] L.P.P.P.F.d ",
"d P.J.D.P.c t f 1.5 z ; %.3 5 e d { > i ; . 1 3 3 % Z.&.d i 3 H.o.g.L.P.P.P.P.d ",
"d P.P.L.L.g t i d 0 i ' i ; 1 t e = 3 1 3 - $ i & *   x d n d 0.N S.M.L.P.K.P.d ",
"d P.F.b.r.g - c ; j s U y ; 1 t 1 = 1 1 3 ; ; 6.< < e 1 m h { 2 M ;.L.P.P.G.P.d ",
"d P.e.e.! Z # 3 t d i k 1 p 3 & i ; 1 p } d d > 1 1 5 3 #.B z.$ L R S.L.P.m.P.d ",
"d P.P.P.P.l.l.3 O d &.k 3 O.d 7 ; ; i 9 4.3 3 ; | { ; i = J -.x B.F.w.K.S.G.P.d ",
"d P.P.P.F.d.2.t ; 5 1 l ; > i >.- d 5 =  .1 u s 1 8.= i ; l.l M P.F.G.g.;.P.P.d ",
"d P.P.P.P.P.` i $ p i i v ; b H ; > 1 ; ; y K d & < ; i ; P -.5 P.P.P.g.@.P.P.d ",
"d P.P.F.P.L.j c < ; ` t N & o.] 1 Y ; ; 3 l H.d 3 ; u d , l.g.S.R P.P.S.g.L.P.d ",
"d P.P.e.P.J.Z a.w.t d #.g O.i 3 @ S.b : 5 9 g.@.; 1 9 3 B C.w.L.,.K.L.m.P.L.P.d ",
"d P.P.P.P.P.l.g.G.l.d @.J L.n d W <.L.l 3 3 l S.5 1 6 M M ` g.P.h.w.m.S.P.M.L.d ",
"d P.P.P.F.P.C.g.L.C.3 ; 3.P.A i 2.] G 9.l ; i a.t k J K.L.t C.S.G.G.B K.P.P.P.d ",
"d P.P.P.P.P.P.K.F.J.C.r ` L.` n 2 k.e.P.L.d z j j h.M P.L.N ] ;.P.S.M L.F.P.P.d ",
"d P.P.P.P.P.P.L.e.P.L.@.a y.n S.M L.F.P.K.5 %.h j.G.5 P.L.L.M N P.S.g.L.P.P.P.d ",
"d P.P.P.P.P.P.P.P.P.L.L.&.n j.S.g.L.P.P.S.w...s.P.g.S.&.P.P.S. .H.g.P.P.P.P.P.d ",
"d P.P.P.P.P.P.P.P.F.P.P.P.J L.g.P.P.P.P.g.G.K.@.K.w.L.g.K.L.m.P.g.G.P.P.P.P.P.d ",
"d P.P.P.P.P.P.P.P.P.P.P.P.P.m.G.P.F.P.L.g.L.P.&.&.m.P.L.w.m.S.P.r.L.P.P.P.P.P.d ",
"d P.P.P.P.P.P.P.P.P.P.P.P.P.K.P.P.P.P.P.K.P.P.L.d L.P.P.G.B K.P.P.P.P.P.P.P.P.d ",
"d P.P.P.P.P.P.P.P.P.P.P.P.P.P.P.P.P.P.P.L.P.P.L.@.;.P.P.S.M L.F.P.P.P.P.P.P.P.d ",
"d P.P.P.P.P.P.P.P.P.P.P.P.P.P.P.P.P.P.P.P.P.P.L.L.&.G.P.S.g.L.P.P.P.P.P.P.P.P.d ",
"d P.P.P.P.P.P.P.P.P.P.P.P.P.P.P.P.P.P.P.P.P.F.P.P.P.w.L.g.P.P.P.P.P.P.P.P.P.P.d ",
"d d d d d d d d d d d d d d d d d d d d d d d d d d d d d d d d d d d d d d d d "
};
