/* XPM */
static char *result[] = {
/* columns rows colors chars-per-pixel */
"51 51 25 1 ",
"  c #686257",
". c #716459",
"X c #FF7D60",
"o c #FF7E61",
"O c #FF8164",
"+ c #FF8E75",
"@ c #FF9780",
"# c #FF9C86",
"$ c #FFA895",
"% c #FFAF9C",
"& c #FFB2A1",
"* c #FFB8A8",
"= c #FFBCAD",
"- c #FFC9BD",
"; c #FFD0C6",
": c #FFD6CD",
"> c #FFDBD3",
", c #FFDFD7",
"< c #FFE2DC",
"1 c #FFE6E0",
"2 c #FFE9E4",
"3 c #FFEDE9",
"4 c #FFF1EE",
"5 c #FFF6F4",
"6 c None",
/* pixels */
"666666666666666666666666666666666666666666666666666",
"666666666666666666666666666666666666666666666666666",
"666666666666666666666666666666666666666666666666666",
"666666666666666666666666*===*6666666666666666666666",
"66666666666666666666666=======%66666666666666666666",
"666666666666666666666%======&&=%6666666666666666666",
"666666666666666*=========353-&&&&&&&&*6666666666666",
"66666666666666========&;45555;&&&&&&$&$666666666666",
"6666666666666*===--==-155555551-====$$$$66666666666",
"6666666666666===255555444444444455553&$$66666666666",
"666666666666%=&>555444443333334444555:$$%6666666666",
"666666666666*&&15544333322222333344453$$$6666666666",
"666666666666&==54433322212112222333445$$#6666666666",
"66666666666*&&-443322111<<<<1111223344-$$#666666666",
"666666666%&&&=2432211<<<<<,<<<<<1123343$###%6666666",
"66666666*&&&=143321<<<,,,>>>>,,<<<122342$###@666666",
"6666666%&&&;4433211<,,>>>>>>>>>,,<1123343-###666666",
"6666666*&&;5443211<,,>>:::::::>>>,<<123344:###66666",
"6666666&&&5543321<,,>>:::;;;::::>>,<1223445$##66666",
"6666666&$&544321<<,>>::;;;;;;;:::>,<<123345$++66666",
"6666666$$$<43321<,>>::;;;---;;;::>>,<123342+#+66666",
"6666666%$$-43211<,>::;;-------;;::>,<<1234&++O66666",
"66666666$$$4321<,>>::;;-------;;::>><<1234#++666666",
"66666666@$$1321<,,>::;----=----;;:>>,<1232+++666666",
"66666666$$#2321<,>>::;;--==---;;;:>,,<1232+++666666",
"66666666$#$4321<,>>::;;----=--;;::>,<<1234#++666666",
"6666666%#$=43221<,>::;;;------;;::>,<<1234=++@66666",
"6666666###143321<,>>::;;;-;-;;;::>>,<123343+o+66666",
"6666666##$544321<<,>>::;;;;;;;:::>,,<123445+oo66666",
"6666666###4543221<,,>>:::;;;:::>>,,<1223455+oo66666",
"6666666@##=5443221<,,>>:::::::>>,,<<123445=ooX66666",
"66666666###&2433211<,,>>>>>>>>>,,<<123341#oooO66666",
"66666666O#++#;433211<<,,,>,>,,,<<<12334>+oooX666666",
"6666666666+#+#,433221<<<<,,<<<<<112334<+oooO6666666",
"66666666666@++$443322111<<<<1111223344$ooX666666666",
"666666666666++#34443322222211222333445ooo6666666666",
"666666666666@++>544433332223233334455,ooX6666666666",
"666666666666O++=555444434333334444555=ooO6666666666",
"666666666666.+++;5555544444444455555:ooo66666666666",
"66666666666. o+o+++oo#-5555555-#oooooooX66666666666",
"66666666666   o+ooo+ooo#15553#ooooooooX666666666666",
"6666666666    .OXooooooo+,5:+ooooooooO6666666666666",
"666666666    .6666666OoooooooooO6666666666666666666",
"66666666    .6666666666ooooooo666666666666666666666",
"6666666     666666666666OoooO6666666666666666666666",
"666666.    6666666666666666666666666666666666666666",
"666666    66666666666666666666666666666666666666666",
"666666.  666666666666666666666666666666666666666666",
"666666666666666666666666666666666666666666666666666",
"666666666666666666666666666666666666666666666666666",
"666666666666666666666666666666666666666666666666666"
};
