/* XPM */
static char *result[] = {
/* columns rows colors chars-per-pixel */
"51 51 3 1 ",
"  c #DFFFF4",
". c #DFFFF5",
"X c None",
/* pixels */
"XXXXXXXXXXXXXXXXXXXXXXXXXXXXXXXXXXXXXXXXXXXXXXXXXXX",
"X                                                  ",
"X                                                  ",
"X                                                  ",
"X                                                  ",
"X                                                  ",
"X                                                  ",
"X                                                  ",
"X                                                  ",
"X                                                  ",
"X                                                  ",
"X                                                  ",
"X                                                  ",
"X                                                  ",
"X                                                  ",
"X                                                  ",
"X                                                  ",
"X                                                  ",
"X                                                  ",
"X                                                  ",
"X                                                  ",
"X                                                  ",
"X                                                  ",
"X                                                  ",
"X                                                  ",
"X                                                  ",
"X                                                  ",
"X                                                  ",
"X                                                  ",
"X                                                  ",
"X                                                  ",
"X                                                  ",
"X                                                  ",
"X                                                  ",
"X                                                  ",
"X                                                  ",
"X                                                  ",
"X                                                  ",
"X                                                  ",
"X                                                  ",
"X                                                  ",
"X                                                  ",
"X                                                  ",
"X                                                  ",
"X                                                  ",
"X                                                  ",
"X                                                  ",
"X                                                  ",
"X                                                  ",
"X                                                  ",
"X.................................................X"
};
