/* XPM */
static char *result[] = {
/* columns rows colors chars-per-pixel */
"51 51 178 2 ",
"   c #45454A",
".  c #45444B",
"X  c #45454B",
"o  c #46444A",
"O  c #46454A",
"+  c #46444B",
"@  c #46454B",
"#  c #47454B",
"$  c #46464A",
"%  c #46444C",
"&  c #51484D",
"*  c #5D4B50",
"=  c #694E53",
"-  c #745054",
";  c #745055",
":  c #4D5962",
">  c #4E5962",
",  c #51646D",
"<  c #526D78",
"1  c #546D78",
"2  c #566E78",
"3  c #576F78",
"4  c #467177",
"5  c #46787E",
"6  c #8B5659",
"7  c #AD5E60",
"8  c #BA6163",
"9  c #D16768",
"0  c #DC6A6A",
"q  c #E86C6D",
"w  c #F46F70",
"e  c #FF7272",
"r  c #557783",
"t  c #517C86",
"y  c #46868C",
"u  c #58828F",
"i  c #5BA1B0",
"p  c #46B7BF",
"a  c #65AABB",
"s  c #47B8C0",
"d  c #47B9C0",
"f  c #47B9C1",
"g  c #46BAC0",
"h  c #47BAC0",
"j  c #47BBC1",
"k  c #49BCC4",
"l  c #4BBCC4",
"z  c #6AB5C7",
"x  c #6FBFD2",
"c  c #71BFD2",
"v  c #4FC0C9",
"b  c #4EC1CB",
"n  c #4EC2CC",
"m  c #50C3CF",
"M  c #50C4CF",
"N  c #54C5CF",
"B  c #55C5CF",
"V  c #55C6D0",
"C  c #54C9D7",
"Z  c #56CAD7",
"A  c #5ACBD7",
"S  c #5CCAD7",
"D  c #57CCDB",
"F  c #58CFDF",
"G  c #5ACFDF",
"H  c #5BCFDF",
"J  c #76CADD",
"K  c #7ECCDD",
"L  c #61D0DF",
"P  c #63D1DF",
"I  c #5AD1E3",
"U  c #5ED2E3",
"Y  c #60D5E7",
"T  c #61D5E7",
"R  c #67D6E7",
"E  c #6AD6E7",
"W  c #6BD7E7",
"Q  c #62D7EB",
"!  c #69D8EB",
"~  c #6ADBEF",
"^  c #6BDBEF",
"/  c #6CDCEF",
"(  c #7CD5E9",
")  c #7ED6E9",
"_  c #70DCEF",
"`  c #66DFF7",
"'  c #76DFF3",
"]  c #68E2FB",
"[  c #69E2FB",
"{  c #6CE2FB",
"}  c #6AE4FF",
"|  c #6BE4FF",
" . c #6AE5FF",
".. c #6BE5FF",
"X. c #6CE4FF",
"o. c #6DE4FF",
"O. c #6CE5FF",
"+. c #6DE5FF",
"@. c #6EE5FF",
"#. c #6FE5FF",
"$. c #6FE6FF",
"%. c #78E2F7",
"&. c #7AE3F7",
"*. c #70E5FF",
"=. c #71E5FF",
"-. c #72E5FF",
";. c #70E6FF",
":. c #71E6FF",
">. c #72E6FF",
",. c #73E6FF",
"<. c #74E5FF",
"1. c #74E6FF",
"2. c #75E6FF",
"3. c #74E7FF",
"4. c #75E7FF",
"5. c #76E6FF",
"6. c #76E7FF",
"7. c #77E7FF",
"8. c #7AE5FB",
"9. c #7CE6FB",
"0. c #78E6FF",
"q. c #79E6FF",
"w. c #78E7FF",
"e. c #79E7FF",
"r. c #7AE7FF",
"t. c #7BE7FF",
"y. c #7CE6FF",
"u. c #7CE7FF",
"i. c #79E8FF",
"p. c #7AE8FF",
"a. c #7BE8FF",
"s. c #7CE8FF",
"d. c #7DE8FF",
"f. c #7DE9FF",
"g. c #7EE8FF",
"h. c #7FE8FF",
"j. c #7EE9FF",
"k. c #7FE9FF",
"l. c #80E6FF",
"z. c #80E7FF",
"x. c #80E8FF",
"c. c #81E8FF",
"v. c #80E9FF",
"b. c #81E9FF",
"n. c #82E8FF",
"m. c #83E8FF",
"M. c #82E9FF",
"N. c #83E9FF",
"B. c #84E9FF",
"V. c #85E9FF",
"C. c #86E9FF",
"Z. c #87E9FF",
"A. c #85EAFF",
"S. c #86EAFF",
"D. c #87EAFF",
"F. c #88E9FF",
"G. c #89E9FF",
"H. c #88EAFF",
"J. c #89EAFF",
"K. c #8AEAFF",
"L. c #8BEAFF",
"P. c #8BEBFF",
"I. c #8CEAFF",
"U. c #8DEAFF",
"Y. c #8CEBFF",
"T. c #8DEBFF",
"R. c #8EEBFF",
"E. c #8FEBFF",
"W. c #90EBFF",
"Q. c #91EBFF",
"!. c #92EBFF",
"~. c #93EBFF",
"^. c #91ECFF",
"/. c #92ECFF",
"(. c #93ECFF",
"). c #94ECFF",
"_. c #95ECFF",
"`. c None",
/* pixels */
"`.`.`.`.`.`.`.`.`.`.`.`.`.`.`.`.`.`.`.`.`.`.`.`.`.`.`.`.`.`.`.`.`.`.`.`.`.`.`.`.`.`.`.`.`.`.`.`.`.`.`.",
"`.`.`.`.`.`.`.`.`.`.`.`.`.`.`.`.`.`.`.`.`.`.`.`.`.`.`.`.`.`.`.`.`.`.`.`.`.`.`.`.`.`.`.`.`.`.`.`.`.`.`.",
"`.`.`.`.`.`.`.`.`.`.`.`.`.`.`.`.`.`.`.`.`.`.`.`.$ $ `.`.`.`.`.`.`.`.`.`.`.`.`.`.`.`.`.`.`.`.`.`.`.`.`.",
"`.`.`.`.`.`.`.`.`.`.`.`.`.`.`.`.`.`.`.`.`.`.`.% @ @ @ `.`.`.`.`.`.`.`.`.`.`.`.`.`.`.`.`.`.`.`.`.`.`.`.",
"`.`.`.`.`.`.`.`.`.`.`.`.`.`.`.`.`.`.`.`.`.`.`.X @ @ @ @ # `.`.`.`.`.`.`.`.`.`.`.`.`.`.`.`.`.`.`.`.`.`.",
"`.`.`.`.`.`.`.`.`.`.`.`.`.`.`.`.`.`.`.`.`.`.`.X @ @ @ @ @ @ `.`.`.`.`.`.`.`.`.`.`.`.`.`.`.`.`.`.`.`.`.",
"`.`.`.`.`.`.`.`.`.`.`.`.`.`.`.`.`.`.`.`.`.`.`.X @ @ - @ @ @ @ # `.`.`.`.`.`.`.`.`.`.`.`.`.`.`.`.`.`.`.",
"`.`.`.`.`.`.`.`.`.`.`.`.`.`.`.`.`.`.`.`.`.`.`.O @ @ q 9 * @ @ @ @ `.`.`.`.`.`.`.`.`.`.`.`.`.`.`.`.`.`.",
"`.`.`.`.`.`.`.`.`.`.`.`.`.`.`.`.`.`.`.`.`.`.`.O @ @ q e q 6 @ @ @ @ `.`.`.`.`.`.`.`.`.`.`.`.`.`.`.`.`.",
"`.`.`.`.`.`.`.`.`.`.`.`.`.`.`.`.`.`.`.`.`.`.`.O @ @ q e e e 8 * @ @ @ @ `.`.`.`.`.`.`.`.`.`.`.`.`.`.`.",
"`.`.`.`.`.`.`.`.`.`.`.`.`.`.`.`.`.`.`.`.`.`.`.@ @ @ e e e e e 0 = @ @ @ @ `.`.`.`.`.`.`.`.`.`.`.`.`.`.",
"`.`.`.`.`.`.`.`.`.`.`.`.`.`.`.`.`.`.`.`.`.`.`.@ @ @ e e w 7 ; & @ @ @ @ + `.`.`.`.`.`.`.`.`.`.`.`.`.`.",
"`.`.`.`.`.`.`.`.`.`.`.`.`.`.`.`.`.`.`.`.`.`.`.@ @ @ 7 ; @ @ @ @ @ @ @ @ % `.`.`.`.`.`.`.`.`.`.`.`.`.`.",
"`.`.`.`.`.`.`.`.`.`.`.`.`.`.`.`.`.`.`.`.`.`.`.@ @ @ @ @ @ @ @ @ O % `.`.`.`.`.`.`.`.`.`.`.`.`.`.`.`.`.",
"`.`.`.`.`.`.`.`.`.`.`.`.`.`.`.`.`.`.`.`.`.`.`.@ @ @ @ @ @ . `.`.`.`.`.`.`.`.`.`.`.`.`.`.`.`.`.`.`.`.`.",
"`.`.`.`.`.`.`.`.`.`.`.`.`.`.`.`.`.`.`.`.`.`.`.@ @ @ . `.`.`.`.`.`.`.`.`.`.`.`.`.`.`.`.`.`.`.`.`.`.`.`.",
"`.`.`.`.`.`.`.`.`.`.`.`.`.`.`.`.`.`.`.`.`.`.`.@ @ . `.`.`.`.`.`.`.`.`.`.`.`.`.`.`.`.`.`.`.`.`.`.`.`.`.",
"`.`.`.`.`.`.`.`.`.`.`.`.`.`.`.`.`.`.`.`.`.`.`.@ @ . `.`.`.`.`.`.`.`.`.`.`.`.`.`.`.`.`.`.`.`.`.`.`.`.`.",
"`.`.`.`.`.`.`.`.`.`.`.`.`.`.`.`.`.`.`.`.`.`.`.@ @ . `.`.`.`.`.`.`.`.`.`.`.`.`.`.`.`.`.`.`.`.`.`.`.`.`.",
"`.`.`.`.`.`.`.`.`.`.`.`.`.`.`.`.`.`.`.`.`.`.`.@ @ # `.`.`.`.`.`.`.`.`.`.`.`.`.`.`.`.`.`.`.`.`.`.`.`.`.",
"`.`.`.`.`.`.`.`.`.`.`.`.`.`.`.`.`.`.`.`.`.`.`.@ @ # `.`.`.`.`.`.`.`.`.`.`.`.`.`.`.`.`.`.`.`.`.`.`.`.`.",
"`.`.`.`.`.`.`.`.`.`.`.`.`.`.`.`.`.`.`.`.`.`.`.@ @   `.`.`.`.`.`.`.`.`.`.`.`.`.`.`.`.`.`.`.`.`.`.`.`.`.",
"`.`.`.`.`.`.`.`.`.`.`.`.`.`.`.`.`.`.`.`.`.`.o @ @ o `.`.`.`.`.`.`.`.`.`.`.`.`.`.`.`.`.`.`.`.`.`.`.`.`.",
"`.`.`.`.`.`.`.`.`.`.`.`.`.`.`.`.`.`.`.`.p f 4 @ @ 4 s s s p `.`.`.`.`.`.`.`.`.`.`.`.`.`.`.`.`.`.`.`.`.",
"`.`.`.`.`.`.`.`.`.`.`.`.`.f h g d d d d d d 5 @ @ y d d d d d d d d g h f `.`.`.`.`.`.`.`.`.`.`.`.`.`.",
"`.`.`.`.`.`.`.`.`.`.h d d d d d k b Z H U T t @ @ i ~ ^ ^ / ! R L A N l d d d d `.`.`.`.`.`.`.`.`.`.`.",
"`.`.`.`.`.`.`.`.g d d d M D Q { @.;.:.>.,.1.u @ @ a e.e.r.r.t.u.s.d.s.d.8._ P N d d h `.`.`.`.`.`.`.`.",
"`.`.`.`.`.`.d d d k F [ O.@.#.*.:.:.,.1.2.5.r @ @ z r.s.s.d.d.g.h.h.g.x.x.x.x.x.%.E B d j `.`.`.`.`.`.",
"`.`.`.`.`.g d k I } X.+.#.*.=.>.,.1.2.6.w.e.< @ @ x u.g.h.x.x.c.c.M.M.n.c.M.M.n.b.c.x.' S d `.`.`.`.`.",
"`.`.`.`.g d m ] | +.@.#.*.>.>.1.2.6.w.e.e.r.1 @ @ c v.v.c.b.N.N.N.N.B.V.B.B.B.B.N.N.b.b.b.W v `.`.`.`.",
"`.`.`.s d C  ...+.@.#.:.>.1.2.6.w.e.e.r.a.d., @ @ J b.M.N.B.B.V.S.C.D.C.S.C.C.C.V.B.B.N.M.b.&.V `.`.`.",
"`.`.`.d n | O.@.$.;.:.,.1.4.5.w.e.r.t.u.d.h.: @ @ ( N.A.C.C.D.H.H.H.J.J.J.H.H.Z.C.C.V.A.B.N.b.9.`.`.`.",
"`.`.`.d ` O.@.#.*.-.,.1.5.7.w.r.t.t.d.j.h.b.> @ @ ) S.D.H.J.J.K.K.L.L.K.K.P.K.J.H.D.C.V.B.M.n.x.l.`.`.",
"`.`.p M o.@.#.=.>.,.2.2.7.w.e.t.u.g.h.b.b.N.@ @ @ Z.H.J.K.L.Y.T.T.T.T.U.U.Y.P.K.J.F.Z.C.B.B.N.b.x.`.`.",
"`.`.p G @.#.:.-.,.1.5.7.w.p.t.d.g.x.x.M.N.B.@ @ @ J.L.I.I.T.E.E.E.E.W.E.R.U.Y.L.K.J.Z.C.V.N.N.c.x.`.`.",
"`.`.`.Y #.:.:.>.1.2.7.q.r.u.s.g.h.x.M.m.V.S.2 @ 3 L.T.R.E.W.W.Q.!.Q.Q.W.E.R.I.L.K.H.D.C.B.N.M.c.k.`.`.",
"`.`.`.H =.>.>.3.2.7.w.r.t.s.g.h.x.b.N.B.C.Z.J.K Y.U.R.W.W.Q.(.(.).(.^.Q.E.T.I.L.J.H.Z.V.B.n.b.x.x.`.`.",
"`.`.`.`.=.>.1.2.7.w.r.r.s.d.h.x.M.n.B.C.D.F.K.L.Y.R.E.W./.(.)._.~.!.Q.W.E.U.L.L.J.H.S.V.B.M.x.h.`.`.`.",
"`.`.`.`.-.,.1.4.7.w.r.a.s.g.v.x.M.B.B.C.D.H.K.L.T.E.W.W.^./.(.~.!./.W.R.R.L.L.J.H.S.V.B.n.c.h.g.`.`.`.",
"`.`.`.`.`.<.2.6.0.e.r.u.g.h.x.b.M.B.V.C.Z.J.K.L.T.R.E.W.W.W.Q.W.W.E.R.T.P.K.J.H.C.V.B.n.c.h.g.f.`.`.`.",
"`.`.`.`.`.`.`.7.0.e.r.d.d.h.x.c.N.B.A.D.F.J.K.L.I.Y.T.E.R.R.E.R.R.T.I.L.J.J.H.C.V.N.n.c.x.g.d.`.`.`.`.",
"`.`.`.`.`.`.`.`.`.i.r.s.d.g.x.c.M.B.V.C.S.H.J.K.K.L.Y.I.I.I.I.I.L.K.J.J.D.C.V.B.M.M.c.h.g.u.f.`.`.`.`.",
"`.`.`.`.`.`.`.`.`.`.`.t.d.g.h.x.n.N.B.V.C.D.H.H.H.K.K.K.K.J.G.J.J.H.Z.C.V.B.N.n.c.x.g.g.s.t.`.`.`.`.`.",
"`.`.`.`.`.`.`.`.`.`.`.`.`.`.v.x.c.n.M.B.B.V.S.D.H.D.F.H.Z.D.Z.Z.V.C.B.B.N.M.c.x.h.d.d.s.r.`.`.`.`.`.`.",
"`.`.`.`.`.`.`.`.`.`.`.`.`.`.`.`.`.z.n.M.m.m.B.V.V.V.S.A.V.C.B.B.B.N.M.n.v.x.h.g.d.t.r.e.`.`.`.`.`.`.`.",
"`.`.`.`.`.`.`.`.`.`.`.`.`.`.`.`.`.`.`.`.`.N.M.N.N.N.N.B.N.M.M.n.c.c.x.h.g.g.d.t.r.p.r.`.`.`.`.`.`.`.`.",
"`.`.`.`.`.`.`.`.`.`.`.`.`.`.`.`.`.`.`.`.`.`.`.`.`.M.b.b.x.x.x.h.h.g.g.d.s.t.a.t.`.`.`.`.`.`.`.`.`.`.`.",
"`.`.`.`.`.`.`.`.`.`.`.`.`.`.`.`.`.`.`.`.`.`.`.`.`.`.`.`.`.`.`.u.y.f.u.r.`.`.`.`.`.`.`.`.`.`.`.`.`.`.`.",
"`.`.`.`.`.`.`.`.`.`.`.`.`.`.`.`.`.`.`.`.`.`.`.`.`.`.`.`.`.`.`.`.`.`.`.`.`.`.`.`.`.`.`.`.`.`.`.`.`.`.`.",
"`.`.`.`.`.`.`.`.`.`.`.`.`.`.`.`.`.`.`.`.`.`.`.`.`.`.`.`.`.`.`.`.`.`.`.`.`.`.`.`.`.`.`.`.`.`.`.`.`.`.`.",
"`.`.`.`.`.`.`.`.`.`.`.`.`.`.`.`.`.`.`.`.`.`.`.`.`.`.`.`.`.`.`.`.`.`.`.`.`.`.`.`.`.`.`.`.`.`.`.`.`.`.`."
};
