/* XPM */
static char *result[] = {
/* columns rows colors chars-per-pixel */
"51 51 90 1 ",
"  c #393742",
". c #393743",
"X c #393841",
"o c #383842",
"O c #393842",
"+ c #393942",
"@ c #3A3842",
"# c #3A3943",
"$ c #3F3D47",
"% c #414049",
"& c #44444C",
"* c #4B494C",
"= c #494850",
"- c #4D4C53",
"; c #525057",
": c #595653",
"> c #57565C",
", c #5A585E",
"< c #625E59",
"1 c #6C6758",
"2 c #706B5B",
"3 c #746F5F",
"4 c #636166",
"5 c #696762",
"6 c #69686D",
"7 c #6C6A6E",
"8 c #777164",
"9 c #7B7667",
"0 c #716F72",
"q c #767478",
"w c #797779",
"e c #7E7B7A",
"r c #7A797D",
"t c #7F7D7D",
"y c #837C6D",
"u c #837E72",
"i c #888272",
"p c #83807B",
"a c #908A7A",
"s c #958E7F",
"d c #817F80",
"f c #828185",
"g c #888586",
"h c #8F8B81",
"j c #8C8B8E",
"k c #959187",
"l c #9A9282",
"z c #9F9888",
"x c #9C988E",
"c c #969493",
"v c #98979B",
"b c #A59D8D",
"n c #A29F9E",
"m c #A8A191",
"M c #ADA697",
"N c #A3A098",
"B c #AAA79F",
"V c #B1AB9F",
"C c #A7A6A6",
"Z c #ACAAA8",
"A c #B2AEAA",
"S c #B7B1A4",
"D c #B2B0AE",
"F c #B7B3AC",
"G c #B7B4AF",
"H c #BCB6AC",
"J c #B8B5B1",
"K c #B9B6B2",
"L c #BAB7B3",
"P c #BEBAB1",
"I c #BAB8B6",
"U c #BBB9B6",
"Y c #BBB9B7",
"T c #BBBAB8",
"R c #BDBCBD",
"E c #C1BDB4",
"W c #C4C1B8",
"Q c #C6C3BB",
"! c #C8C5BE",
"~ c #CAC7C0",
"^ c #CCC8C2",
"/ c #CDCBC8",
"( c #D6D3CF",
") c #DCDAD6",
"_ c #E2E0DD",
"` c #E4E3E0",
"' c #E6E5E2",
"] c #EEEDED",
"[ c #F6F6F6",
"{ c None",
/* pixels */
"{{{{{{{{{{{{{{{{{{{{{{{{{{{{{{{{{{{{{{{{{{{{{{{{{{{",
"{{{{{{{{{{{{{{{{{{{{{{{{{{{{{{{{{{{{{{{{{{{{{{{{{{{",
"{{{{{{{{{{{{{{{{oo{{{{{{{{{{{{{{{{{{{{{{{{o{{{{{{{{",
"{{{{{{{{{{{{{{#OOOOO@{{{{{{{{{{{{{{{{{+ OOOOX{{{{{{",
"{{{{{{{{{{{{{@OOOOOOOO@{{{{{{{{{{{{{+OOOOOOOOX{{{{{",
"{{{{{{{{{{{{{.OO47;OOOOX{{{{{{{{{{{XOOOO=70OOO{{{{{",
"{{{{{{{{{{{{{OOO`DAC6OOOO{{{{{{{{{XOOO,cAA);OO{{{{{",
"{{{{{{{{{{{{{ OO]]TZGv=OO {{{{{{{XOO%fGAG'[;OO{{{{{",
"{{{{{{{{{{{{{.OO/[[/ZDC=OOX{{{{{#OO%nGZR][]OOO{{{{{",
"{{{{{{{{{{{{{+OOv[[(j0q6OOO ooo@OOO4q0g_[[ROOX{{{{{",
"{{{{{{{{{{{{{{OO6[vOOOOOOOOOOOOOOOOOOOOOv[fOO+{{{{{",
"{{{{{{{{{{{{{{ OOqOOOOOOOOOOOOOOOOOOOOOOOj&OO{{{{{{",
"{{{{{{{{{{{{{{ OOOOO,eettddddddddddddt4OOOOOX{{{{{{",
"{{{{{{{{{{{{{{{OOOO7EWQ/())(!QQQQ~^()((0OOOO{{{{{{{",
"{{{{{{{{{{{{{{{OOO4W(_`''`_)VMMMMV~_`'``rOOO+{{{{{{",
"{{{{{{{{{{{{{{OOO;^````)^HHVsaaassbHP^(_`,OOO{{{{{{",
"{{{{{{{{{{{{{OOO;(``)/F>O:iy983389ii;O4P/~>OOO{{{{{",
"{{{{{{{{{{{{OOO=^`_/~EpOOO:2uxBBk92<OOOtW^E;OOO{{{{",
"{{{{{{{{{{{ OO=P_`^^QV8OOO5R][C&&fB:OOOeH~~F=OO {{{",
"{{{{{{{{{{@OO=V)`(~^PMs:O*^[[ROOOO!B*O*zVW~!A=OO+{{",
"{{{{{{{{{{.OOx^__Q!~Hmsy2h][[vOOOOv)88ilME^!QNOOX{{",
"{{{{{{{{{{XOOx)_^Q~~Hmsy2h][[/OOOOR)83ilME~!QNOO.{{",
"{{{{{{{{{{+OO-/)WQ!^PMli83~[[[v;&C]B19azVW^!A=OO@{{",
"{{{{{{{{@X#OOO;KEQ!^QSbay29J'[[[[_N28ismH~~F=OO {{{",
"{{{{{XOOOOOOOOO=AWQ!^EVzay829kNNh829isbSQ~G=OOO{{{{",
"{{{{XOOOOOOOOOOO=HW!~^EVblay983889iazmSQ~E=OOO{{{{{",
"{{{XOOO;<:<5,OOOO;HWQ!^QHMbzsaaaslzmVP!~E;OOO{{{{{{",
"{{{OO$pu13ixVKrOOO;HWQ!~~QPSVMMMVVHE!~!!;OOO{{{{{{{",
"{{.OO0i22ukBEA=OOOO7EWWQ!~~~~!!!!~~~!!Q7OOOo{{{{{{{",
"{{OOOu31ykBPQ;OO%OOO;eeetdddddddddddtt,OOOo{{{{{{{{",
"{{OO$819hNGQwOOOcrOOOOOOOOOOOOOOOOOOOOOOOX{{{{{{{{{",
"{{OOO19hNFQBOOOrTTrOOOOOOOOOOOOOOOOOOOOOOO{{{{{{{{{",
"{{XOO5axAQL=OO4TTTTZjrrrrrrrrrrrrrrrrrj,OOX{{{{{{{{",
"{{@OO<xVWEpOO%ZYUTYTYTYTYYYTYYYYYTYYYYTZ%OO{{{{{{{{",
"{{{OO$nEWB-OOrIIUUIIIUUUIIUIUUUUIIUIIIIIrOOX{{{{{{{",
"{{{ OOrQVhOOOZIIIIIIIUIIIIIIIIUIIIIIIIIID%OOo{{{{{{",
"{{{{OO%nx8OO,LLLLC%=nLLLLLLLLLLIILIIILLLUrOO {{{{{{",
"{{{{.OO-u<OO,LLLn=OOwKLLLLKKLLKLLLLL0O0LLD%OO{{{{{{",
"{{{{{ OO*8OOO=w0OOO%CKKKKKKLLLKKKLKKOOO6nC,OOo{{{{{",
"{{{{{{OOO>qOOOOOOOOjJKJJKJKKKJJJKJKK,OOOOOOOO{{{{{{",
"{{{{{{oOOO=4OOOOOO=JJJJJJnwwwwgJJJJJvOOOOOOOX{{{{{{",
"{{{{{{{oOOOO,5:*OO6GGGJGG=OOOOOdGGGJG%OO XX{{{{{{{{",
"{{{{{{{{{ OOO%<&OOdGGGGGG%OOOOO>GGGGG0OO+{{{{{{{{{{",
"{{{{{{{{{{XOOOOOOOcFFFFFG;OO@OOOAFFGFcOO {{{{{{{{{{",
"{{{{{{{{{{{{XOOOOOcFFFFFF>OO{XOOqFFFFF%OO{{{{{{{{{{",
"{{{{{{{{{{{{{{XOOO0AFFFFF%OO{{OO%gFFFn>OO{{{{{{{{{{",
"{{{{{{{{{{{{{{{{OOO4tccg0OO {{XOOOO=%OOOOo{{{{{{{{{",
"{{{{{{{{{{{{{{{{.OOOOOOOOOO@{{{XOOOOOOOOX{{{{{{{{{{",
"{{{{{{{{{{{{{{{{{@OOOOOOOOX{{{{{oXOOO  {{{{{{{{{{{{",
"{{{{{{{{{{{{{{{{{{{{@XX +{{{{{{{{{{{{{{{{{{{{{{{{{{",
"{{{{{{{{{{{{{{{{{{{{{{{{{{{{{{{{{{{{{{{{{{{{{{{{{{{"
};
