/* XPM */
static char *result[] = {
/* columns rows colors chars-per-pixel */
"40 40 5 1 ",
"  c black",
". c #24221F",
"X c #1E2254",
"o c #8B8FB5",
"O c #D1C6AE",
/* pixels */
"oooooooooooooooooooooooooooooooooooooooo",
"oooooooooooooooooooooooooooooooooooooooo",
"oooooooooooooooooooooooooooooooooooooooo",
"oooooooooooooooooooooooooooooooooooooooo",
"oooooooooooooooo.o.o.oo.oo.o..oooooooooo",
"oooooooooooooooo.o..    .....ooooooooooo",
"ooooooooooooooooo.  OOOOO  ooooooooooooo",
"ooooooooooooooooo OOOOOOOOO oooooooooooo",
"oooooooooooooooo O...OOO...O ooooooooooo",
"oooooooooooooooo OOOOOOOOOOO ooooooooooo",
"ooooooooooooooo OOO.OOOOO.OOO oooooooooo",
"ooooooooooooooo OOOOOO.OOOOOO oooooooooo",
"ooooooooooooooo OOOOOO.OOOOOO oooooooooo",
"ooooooooooooooo OOOOOOOOOOOOO oooooooooo",
"ooooooooooooooo OOO.OOOOO.OOO oooooooooo",
"oooooooooooooooo OOO.....OOO ooooooooooo",
"oooooooooooooooo OOOOOOOOOOO ooooooooooo",
"ooooooooooooooooo OOOOOOOOO oooooooooooo",
"oooooooooooooooooo  OOOOO  ooooooooooooo",
"ooooooooooooooooooo.     .oooooooooooooo",
"ooooooooooooooooooo.XXXXX.oooooooooooooo",
"ooooooooooooooo......XXX.......ooooooooo",
"ooooooooooooooo......XXX.......ooooooooo",
"oooooooooooooooooooo.XXX.ooooooooooooooo",
"oooooooooooooooooooo.XXX.ooooooooooooooo",
"oooooooooooooooooooo.XXX.ooooooooooooooo",
"oooooooooooooooooooo.....ooooooooooooooo",
"oooooooooooooooooo...ooo...ooooooooooooo",
"oooooooooooooooooo...ooo...ooooooooooooo",
"oooooooooooooooooo...ooo...ooooooooooooo",
"oooooooooooooooooo...ooo...ooooooooooooo",
"oooooooooooooooooo...ooo...ooooooooooooo",
"oooooooooooooooooo...ooo...ooooooooooooo",
"oooooooooooooooooooooooooooooooooooooooo",
"oooooooooooooooooooooooooooooooooooooooo",
"oooooooooooooooooooooooooooooooooooooooo",
"oooooooooooooooooooooooooooooooooooooooo",
"oooooooooooooooooooooooooooooooooooooooo",
"oooooooooooooooooooooooooooooooooooooooo",
"oooooooooooooooooooooooooooooooooooooooo"
};
