/* XPM */
static char *result[] = {
/* columns rows colors chars-per-pixel */
"32 32 90 1 ",
"  c #05050F",
". c #1F1F2B",
"X c #050510",
"o c #080818",
"O c #09091A",
"+ c #0C0C23",
"@ c #0D0D26",
"# c #0D0D27",
"$ c #0F0F2B",
"% c #0E0E29",
"& c #080817",
"* c gray10",
"= c #1A1A2B",
"- c #15152E",
"; c #10102E",
": c #181838",
"> c #111131",
", c #222241",
"< c #111130",
"1 c #10102D",
"2 c #070714",
"3 c #1B1B2E",
"4 c #1E1E32",
"5 c #757D2E",
"6 c #0C0C22",
"7 c #1E1E36",
"8 c #0E0E28",
"9 c #565678",
"0 c #2A2A48",
"q c #222236",
"w c #10102F",
"e c #414D1F",
"r c #121231",
"t c #0F0F2A",
"y c #647932",
"u c #09091B",
"i c #2E3715",
"p c #1D1D41",
"a c #151539",
"s c #131333",
"d c #232341",
"f c #0B0B1F",
"g c #2B2B48",
"h c #16163B",
"j c #0F555D",
"k c #17173B",
"l c #19ABB8",
"z c #12808A",
"x c #4D4D6A",
"c c gray3",
"v c #14142E",
"b c #0F0F2C",
"n c #B1DE00",
"m c #95B902",
"M c #CECECE",
"N c #CDFF09",
"B c #191939",
"V c #187E87",
"C c #0D2D37",
"Z c #0D555E",
"A c #484863",
"S c #17173C",
"D c #1A1A35",
"F c #151537",
"G c #131334",
"H c #151538",
"J c #0C0C24",
"K c #141436",
"L c #0A0A1D",
"P c #232334",
"I c #0B0B21",
"U c #0E0E2A",
"Y c #171731",
"T c #171730",
"R c #0A0A1C",
"E c #121223",
"W c #161627",
"Q c #3F3F58",
"! c #45455E",
"~ c #090919",
"^ c #141421",
"/ c #060611",
"( c #0D0D25",
") c #0C0C1E",
"_ c #060612",
"` c #080816",
"' c #1B1B2B",
"] c #070715",
"[ c #616176",
"{ c #10101B",
/* pixels */
" .XoOOOOO+@@@@#$$$$$$$%@@@@@@@@@",
" X&O**=O+@-@%;:>>>>>>>,><1**@@@@",
" 234*5*6@@78>>9>>>>>0>>>>>*5*#@@",
"XO4q*5*@@@#w>>>>>>>>>>>>>>*5*w#@",
"oOOO*e5*@@1>>>>***rrrr>>0*5e*>w#",
"OOOO*e5*@t>rrr*yee*rrrr>>*5e*>>;",
"OOu6*ee5*>rrrr*iii*pasdr*5ee*>>>",
"Of@@*ee5*rrg*********hsr*5ee*>>>",
"f@@-*eee5*r*jjjjjjjjj*k*5eee*>>>",
"@@@@*eeiii*lzzzzzzzzzj*iiiee*>>>",
"@x@%*eii***lzccccccczj***iie*,>>",
"@vb*eei*nm*lzccccccczj*nm*iee*>>",
"@b>*iii*nm*lzcccccMczj*nm*iii*>$",
"%>>*i***Nm*lzcccccMczj*nm***i*;#",
"1B,>*VC*Nm*lzccccMcczj*nm*CC*<8@",
">>>*VZC*Nm*lzzcccMczzj*nm*VZC*@@",
">>*VZC**Nm*lzzccccczzj*nm**ZC*@A",
">>*ZC*S*Nnm*lzzccczzj*Nnm*w*ZC*D",
">>*C*FSS*nm*lzzzzzzzj*Nm*;#@*C*@",
">>*C*GSS*nmm*lzzzzzj*Nnm*@@@*C*@",
">>*C*rHS*nm*r*CCCCC*>*nm*@@@*C*J",
">>*C*rrK*nm*rr*lzj*0>*nm*@@@*C*u",
">>*C*rrr*nm*>>*lzj*1t*nm*@@@*C*O",
">>>*>>>>*nm*>>*lzj*@@*nm*@6LO*OO",
">>>*:9>>****><*lzj*@@****uOOO*OP",
">>>*>>>>>>w$%@@*j*@7JILOOOOOO*OO",
">>>>>>>w1U#@@@@*j*fLOOOOOOOOOOOo",
">><wbU#@@@YTIRR*j*OOOOOOEOOOWO&X",
"%8@@7@@@6fQ!OOOO*OOOOOOOEO~o^/  ",
"@@@@@(ILOO))OO=O*OOOO~&2_/      ",
"++6fLuOOOOOOOOOOOOO`'X          ",
"OOOOOOOOO~&&&&&]22X [{          "
};