/* XPM */
static char *result[] = {
/* columns rows colors chars-per-pixel */
"32 32 99 2 ",
"   c gray3",
".  c gray10",
"X  c #1D1E1A",
"o  c #1D230A",
"O  c #2E380C",
"+  c #212319",
"@  c #22251A",
"#  c #282C1A",
"$  c #2E3715",
"%  c #2B311B",
"&  c #2F351A",
"*  c #2F341B",
"=  c #303619",
"-  c #333B19",
";  c #31381A",
":  c #353D1A",
">  c #0D2D37",
",  c #0F2E36",
"<  c #3C4716",
"1  c #3D4916",
"2  c #2F5031",
"3  c #434F1D",
"4  c #414D1F",
"5  c #445119",
"6  c #56671E",
"7  c #5A6C1B",
"8  c #596C1E",
"9  c #5D7118",
"0  c #687E1F",
"q  c #576A25",
"w  c #596C26",
"e  c #607720",
"r  c #647932",
"t  c #0F555D",
"y  c #407A47",
"u  c #6A8217",
"i  c #6A8317",
"p  c #7B9817",
"a  c #7D9B16",
"s  c #7C9B17",
"d  c #79951C",
"f  c #809F16",
"g  c #84A800",
"h  c #87AB0D",
"j  c #87AC0D",
"k  c #89AE0D",
"l  c #8CB00D",
"z  c #8CB10D",
"x  c #8EB30D",
"c  c #8FB40D",
"v  c #95B902",
"b  c #95B804",
"n  c #95BA08",
"m  c #81A116",
"M  c #81A117",
"N  c #85A517",
"B  c #8BAD16",
"V  c #84A31B",
"C  c #8BAC1F",
"Z  c #8FB316",
"A  c #90B316",
"S  c #90B416",
"D  c #90B516",
"F  c #91B516",
"G  c #91B417",
"H  c #91B616",
"J  c #93B816",
"K  c #96BB15",
"L  c #94B916",
"P  c #96BB16",
"I  c #95B91C",
"U  c #98BD1C",
"Y  c #99BD1C",
"T  c #9ABF1C",
"R  c #ACD704",
"E  c #AFDB01",
"W  c #B1DD00",
"Q  c #B0DD01",
"!  c #B1DE00",
"~  c #9CC122",
"^  c #9DC122",
"/  c #9DC222",
"(  c #9FC422",
")  c #A0C522",
"_  c #A1C626",
"`  c #A3C826",
"'  c #A4C82A",
"]  c #A4C92A",
"[  c #A6CB2A",
"{  c #A6CA2E",
"}  c #CBFD0A",
"|  c #CDFF09",
" . c #12808A",
".. c #30AF9D",
"X. c #1DABB3",
"o. c #1BABB5",
"O. c #19ABB8",
"+. c #22ACAD",
"@. c #CECECE",
/* pixels */
"I Z I F I Y Y { P P P x P P P J F Z I F Y Y I F Y ^ I Y Y I Y F ",
"Y F I F F I I Y ) ) ( P ~ L P ~ I H Y F I F I Y Y Y I ' Y Z F F ",
"F Z F Y I I I F H T P c P P T ] I I Y F I F I Y F Y ^ Y Z I ^ F ",
"F Y I ^ Y F I I x P k k P D H ( Y I ^ I Y I F F I I I Z l Y { I ",
"I { ^ ^ ^ F F Y P ~ x L ~ P G 8 : - w I ' ^ I F Y h l F Z F ^ { ",
"Y { ^ F F F I ' / _ H / / P 7 r 4 4 . F Y ' ' Y I Z F Y F F I ' ",
"I I Y Z Z F Y ^ _ ] U ` P k # $ $ $ . Z Y ^ ^ Y F I ^ I F I F I ",
"I l I Z l F F l T / P ] s 1 . . . . . . . C I I Y F I I I I F I ",
"I F F F F Y Y F D x H V y t t t t t t t t . ^ Z T _ / P ~ / L c ",
"Y Z I Y Y { ^ I ~ P B O. . . . . . . . . .t * I L T U J P P P L ",
"Z l Z I Y ' ^ ^ ( A a O. .o O            .t . . . f T P D H L P ",
"Z l F I I Y ' { Q v i O. .               .t . ! v . J L x D P L ",
"I Z I I F I F Y ! v = O. .          @.   .t . ! v . x H H P T J ",
"I F I I F I l g | v + O. .          @.   .t . ! v . J U / ( ~ L ",
"Y Y ^ ^ Y ' I l | v @ O. .        @.     .t . ! v . _ / ) ) T H ",
"Z I ' Y Y { ^ I | v % O. . .      @.   . .t . ! v . ( P ~ ~ L D ",
"H P J L H J T c | v X O. . .           . .t . ! v . ' Y Z F l I ",
"P J P / P x J H } ! v 3 O. . .       . .t . | ! v . ^ I I Y F I ",
"P P T / P x P J N ! v 5 O. . . . . . . .t . | v . q F F I I F Z ",
"T _ ( T H J U z H ! v b 9 O. . . . . .t . | ! v . F l F Y ^ ^ F ",
"_ ] / P H P P j P W n m S 0 2 , > > > . e . ! v . I Z I I ^ { Y ",
"_ ~ P U P P T D T ! P T U / d o. .t ; P J 6 ! v p I F I Z F ^ I ",
"P H c P P T _ T P ! J P P ` _ .. .t M L P P E v Z Z I F Z F ^ I ",
"x P U L H T _ P ] Q K J c ~ ~ X. .t P P P H R v I I ^ Y Z I ^ F ",
"P c x k c T J H H H P z J P T +. .t L L ~ ) T x S ^ ' Y Y F F Y ",
"T H P H H T J P P J / L L L P P t < H P P T ) [ Y ' ^ I F F Z I ",
"P P P U P T T ~ H H _ / U T T U t & P P c x P ] ^ ^ I F I F F F ",
"P T T P T ( ) / P D _ _ ~ / / P t u P P D z D T I F Z I Y Y Y F ",
"/ ( T H P _ ` T T D ~ _ U ~ P x T ~ ~ P P T U L I F Z I Y Y ^ F ",
") _ U H P ~ / c P x H T L T H x P / _ ( ~ / ~ P F F l F Y I ' Y ",
"/ / L L P L T D c x J T L U c P D P ~ / ~ T Y T F F Z I I F ^ Y ",
"P P H P P x L P H P ~ ) P P x U L H H P T P H H F Y I ^ F Z Y F "
};
